# xmcd CD database file
#
# Track frame offsets:
#	150
#	20869
#	34349
#	51974
#	63929
#	84990
#	96432
#	109223
#	120591
#	139065
#	155359
#	171325
#	181143
#	194737
#	213317
#	229303
#	242563
#	257900
#
# Disc length: 3712 seconds
#
# Revision: 0
# Processed by: cddbd v1.5.1PL0 Copyright (c) Steve Scherf et al.
# Submitted via: CDex 1.50beta10
#
DISCID=070e7e12
DTITLE=Little Mack Simmons - The PM/Simmons Collection 1971-1982
DYEAR=1999
DGENRE=Blues
TTITLE0=You've Got To Help Me
TTITLE1=You're So Fine
TTITLE2=I'm A Streaker Baby
TTITLE3=Next Time You See Me
TTITLE4=The Same One
TTITLE5=Key To The Highway
TTITLE6=Cryin' The Blues (Fenton Robinson)
TTITLE7=Mother-In-Law Blues
TTITLE8=Impeach Me (Arelean Brown)
TTITLE9=Messing With The Kid
TTITLE10=Mama Was Right
TTITLE11=Inflation Blues
TTITLE12=Chicken Man
TTITLE13=Rainy Night In Georgia
TTITLE14=Snap Your Fingers
TTITLE15=I'm Gonna Keep On Searching Till I Find Mine (Part 1)
TTITLE16=Skin Tight
TTITLE17=Blue Lite
EXTD=YEAR: 1999
EXTT0=
EXTT1=
EXTT2=
EXTT3=
EXTT4=
EXTT5=
EXTT6=
EXTT7=
EXTT8=
EXTT9=
EXTT10=
EXTT11=
EXTT12=
EXTT13=
EXTT14=
EXTT15=
EXTT16=
EXTT17=
PLAYORDER=
